<?xml version="1.0" encoding="UTF-8"?> <!-- Generator: Adobe Illustrator 19.2.1, SVG Export Plug-In . SVG Version: 6.00 Build 0) --> <svg xmlns="http://www.w3.org/2000/svg" xmlns:xlink="http://www.w3.org/1999/xlink" version="1.1" id="Capa_1" x="0px" y="0px" viewBox="0 0 100 100" style="enable-background:new 0 0 100 100;" xml:space="preserve"> <style type="text/css"> .st0{fill:#FFFFFF;} .st1{clip-path:url(#SVGID_2_);} .st2{fill:#087132;} .st3{fill:#D0103C;} .st4{fill:#3EA658;} .st5{fill:#C38E50;} .st6{fill:#462D1D;} .st7{fill:#DFBB53;} .st8{fill:#218285;} .st9{fill:#45B0DB;} .st10{fill:#A1A574;} .st11{fill:#F0803B;} </style> <circle class="st0" cx="50" cy="50.3" r="45.2"></circle> <g> <defs> <circle id="SVGID_1_" cx="50" cy="50.3" r="38.8"></circle> </defs> <clipPath id="SVGID_2_"> <use xlink:href="#SVGID_1_" style="overflow:visible;"></use> </clipPath> <g class="st1"> <g> <rect x="-36.3" y="27.1" transform="matrix(-1.836970e-016 1 -1 -1.836970e-016 53.8198 42.4283)" class="st2" width="84" height="42"></rect> <rect x="5.7" y="27.1" transform="matrix(-1.836970e-016 1 -1 -1.836970e-016 95.7916 0.4565)" class="st0" width="84" height="42"></rect> <rect x="47.6" y="27.1" transform="matrix(-1.836970e-016 1 -1 -1.836970e-016 137.7633 -41.5152)" class="st3" width="84" height="42"></rect> <g> <path class="st4" d="M43.9,49.9c-0.1,0-0.1,0-0.2,0c-0.3-0.2-0.4-0.6-0.3-0.9c0-0.2,0.1-0.3,0.2-0.4c0-0.1,0.1-0.1,0.1-0.2 c0.1-0.3,0.1-0.6,0-0.9c-0.1-0.2-0.3-0.4-0.5-0.5C42.9,47,42.7,47,42.4,47c-0.4,0-0.9,0-1.3-0.3c-0.5-0.4-0.5-1.2-0.3-1.7 c0.2-0.5,0.6-0.8,1-1.1l0.2-0.1c0.3-0.2,0.6-0.4,0.8-0.7c0.2-0.3,0.3-0.6,0.3-0.9c0-0.3-0.2-0.6-0.5-0.7 c-0.2-0.1-0.6-0.1-0.9-0.1c-0.2,0-0.5,0-0.7,0c-0.4,0-0.7-0.2-0.9-0.4c-0.4-0.4-0.4-1.1-0.2-1.5c0.2-0.4,0.5-0.8,0.8-1.1 c0.1-0.1,0.4-0.1,0.5,0c0.1,0.1,0.1,0.4,0,0.5c-0.3,0.3-0.5,0.5-0.7,0.9c-0.1,0.2-0.1,0.6,0.1,0.8c0.1,0.1,0.3,0.2,0.5,0.2 c0.2,0,0.4,0,0.6,0c0.4,0,0.8-0.1,1.2,0.1c0.5,0.2,0.8,0.7,0.9,1.3c0,0.5-0.1,1-0.4,1.4c-0.3,0.4-0.6,0.6-1,0.9l-0.2,0.1 c-0.3,0.2-0.7,0.5-0.8,0.9c-0.1,0.3-0.1,0.7,0.1,0.8c0.2,0.2,0.5,0.2,0.8,0.1c0.3,0,0.6,0,0.9,0.1c0.4,0.1,0.7,0.4,0.9,0.9 c0.2,0.5,0.2,1,0,1.4c0,0.1-0.1,0.1-0.1,0.2c0,0.1-0.1,0.2-0.1,0.3c0,0.1,0,0.1,0,0.1c0.2,0.1,0.2,0.3,0.1,0.5 C44.1,49.9,44,49.9,43.9,49.9z"></path> <path class="st4" d="M43.9,50.3c-0.6,0-1.2-0.4-1.4-0.9c-0.5,0.3-1,0-1.3-0.3c-0.1-0.1-0.2-0.2-0.3-0.3 c-0.1-0.1-0.2-0.3-0.3-0.4c-0.1-0.1-0.3-0.2-0.4-0.2c-0.3-0.1-0.6-0.3-0.8-0.7c-0.2-0.4-0.1-0.9-0.1-1.2 c0.1-0.4,0.2-0.8,0.1-1.2c0-0.4-0.2-0.7-0.4-0.9c-0.2-0.2-0.6-0.3-0.8-0.2c-0.2,0.1-0.4,0-0.5-0.2c-0.1-0.2,0-0.4,0.2-0.5 c0.5-0.2,1.1-0.1,1.6,0.3c0.3,0.3,0.6,0.8,0.6,1.4c0,0.5-0.1,1-0.1,1.4c-0.1,0.3-0.1,0.5,0,0.7c0.1,0.2,0.3,0.2,0.5,0.3 c0.2,0.1,0.4,0.2,0.6,0.3c0.2,0.1,0.3,0.3,0.4,0.5c0.1,0.1,0.1,0.2,0.2,0.3c0.1,0.1,0.3,0.2,0.4,0.2c0.1-0.1,0.3-0.2,0.4-0.2 c0.3,0,0.5,0.3,0.6,0.5c0.2,0.3,0.5,0.5,0.8,0.5c0.2,0,0.3,0.2,0.3,0.4C44.3,50.2,44.1,50.3,43.9,50.3z"></path> <g> <path class="st5" d="M46.6,37.3c0,0,1.6,0.6,1.9,2.2c-1.5,0.1-2.1-2.4-3.4-2.2c-1.3,0.1-3.5,1.8-4.1,4.6 c3.1,0.5,3.7-1.1,3.7-1.1s0.8,1.2,0,2.5c-0.8,1.3-0.1,3.4,1.5,4.8c1.5,1.4,2.2,1.6,2.2,1.6s-2,0.8,0,1.4c2,0.6,2.7,0.5,3.8,0.5 c1.1,0,3.9-0.8,3.9-0.8s-4.2-2.8-4.6-4.1c-0.4-1.3-0.3-1.8-0.3-1.8s5.1,1.8,5.9,6c2.1-8,0.9-9.1-2.5-12.8 C51.4,34.3,46.9,35.2,46.6,37.3z"></path> <path class="st6" d="M52.1,38.2c0,0,5.1,1.5,5.4,7.2c0.2,5.7,0,3.2,0,3.2s-3.2-4.3-4.6-4.5c-1.4-0.2-2.2-0.5-2.7,0.6 c-0.5,1.1,0.9,3.2,2.1,3.9c1.2,0.7,2.4,1.6,2.4,1.6s-4.8-0.9-4.9-1.1C49.7,49,46,47.8,46,47.8s-0.7-3,1.2-3.3 c1.9-0.3,1.9-0.3,1.9-0.3s-0.5-1.4,0.6-1.8c1-0.4,2.5-0.4,2.5-0.4L52.1,38.2z"></path> <path class="st6" d="M44.8,39.7c-1.1,0-2.1,0.9-2.1,2c0,0.1,0,0.2,0,0.3c1.7-0.2,2.1-1.1,2.1-1.1s0.8,1.2,0,2.5 c-0.1,0.1-0.1,0.2-0.1,0.3c0,0,0,0,0.1,0c1.1,0,2.1-0.9,2.1-2C46.9,40.6,45.9,39.7,44.8,39.7z"></path> <path class="st7" d="M42.2,39.4c-0.5,0.7-0.9,1.5-1.1,2.5c1.7,0.3,2.6,0,3.1-0.4C44,40.6,43,39.9,42.2,39.4z"></path> </g> <path class="st8" d="M38.7,51.4c-0.3-0.5-0.2-1.3,0.3-1.5c0.3-0.1,0.7,0,1,0.2c0.3,0.2,0.5,0.5,0.8,0.7c0.6,0.5,1.3,0.7,2,0.9 c0.5,0.2,1.1,0.3,1.6,0.2c0.5-0.1,0.9-0.6,1.4-0.5c0.5,0.1,0.7,0.6,1.1,0.9c0.7,0.4,1.5,0.1,2.3,0c0.8-0.1,1.5-0.1,2.3-0.1 c0.8,0,1.5,0.1,2.3,0.1c0.6,0,1.3,0.1,1.6,0.7c0.2,0.5,0,1-0.4,1.3c-0.4,0.3-1,0.3-1.5,0.3c-0.5-0.1-1-0.2-1.5-0.2 c-1.1-0.1-2.2,0.3-2.9,1c-0.2,0.2-0.4,0.5-0.7,0.6c-0.3,0.2-0.6,0.3-0.9,0.1c-0.3-0.2-0.5-0.6-0.4-0.9c0.1-0.4,0.3-0.7,0.5-1 c-0.5,0.3-1,0.6-1.5,0.7c-0.5,0.1-1.2,0-1.5-0.4c-0.4-0.4-0.3-1.2,0.1-1.5c-0.7,0.2-1.4,0.5-2.1,0.4c-0.4,0-0.8-0.2-1.1-0.3 c-0.6-0.2-1.1-0.4-1.6-0.7C39.8,52.2,38.7,51.8,38.7,51.4z"></path> <path class="st9" d="M48.5,55.9c-1.3-0.8-2.1-1.5-2.4-1.8c-0.3-0.3-0.2-0.3-0.8-0.3c-0.6,0-0.7,0.1-1.5,0 c-0.8-0.2-1.5,0.1-1.6,0.4c-0.1,0.2-0.5,0.7-0.9,0.2c-0.5-0.5-1.2-1-1.1-0.4c0.1,0.6,0.5,0.5,1.1,0.9c0.6,0.4,0.5,1,0.8,1.3 c0.3,0.3,1-0.4,1.5-0.2c0.5,0.2,0.3,0.2,0.7,0.9c0.3,0.7,1.4,0.8,2,0.2c0.6-0.6,0.5-1.4,1.6-0.5s1.4,0.6,2.1,0.5 c0.7-0.1,1.4,0.4,2,0.6c0.5,0.2,0-0.9,1.1-1.4c1.1-0.4,2.8,0.5,1.8-0.6c-1-1.1-1.3-0.7-2.2-0.2c-0.9,0.5-1.7,0-2,0 C50.1,55.4,48.5,55.9,48.5,55.9z"></path> <g> <ellipse transform="matrix(0.2587 -0.966 0.966 0.2587 -24.6534 86.6042)" class="st10" cx="44.1" cy="59.4" rx="1.3" ry="2"></ellipse> <ellipse transform="matrix(0.5465 -0.8375 0.8375 0.5465 -29.7799 58.9654)" class="st10" cx="39.6" cy="57" rx="1.3" ry="2"></ellipse> <ellipse transform="matrix(0.8117 -0.5841 0.5841 0.8117 -24.0941 31.1675)" class="st10" cx="36.3" cy="53" rx="1.3" ry="2"></ellipse> <ellipse transform="matrix(2.858905e-002 -0.9996 0.9996 2.858905e-002 -14.5751 81.1815)" class="st10" cx="34.5" cy="48.1" rx="2" ry="1.3"></ellipse> </g> <g> <ellipse transform="matrix(0.966 -0.2587 0.2587 0.966 -13.6142 15.2766)" class="st10" cx="51.2" cy="59.4" rx="2" ry="1.3"></ellipse> <ellipse transform="matrix(0.8375 -0.5465 0.5465 0.8375 -22.0722 39.7451)" class="st10" cx="55.8" cy="57" rx="2" ry="1.3"></ellipse> <ellipse transform="matrix(0.5841 -0.8117 0.8117 0.5841 -18.4237 69.9517)" class="st10" cx="59" cy="53" rx="2" ry="1.3"></ellipse> <ellipse transform="matrix(0.9996 -2.858905e-002 2.858905e-002 0.9996 -1.35 1.7594)" class="st10" cx="60.9" cy="48.1" rx="1.3" ry="2"></ellipse> </g> <ellipse class="st11" cx="47.7" cy="55.6" rx="2.7" ry="2.6"></ellipse> </g> </g> </g> </g> </svg> 